HIERARCHY
ROOT Hips
{
     OFFSET 1.88212 96.90440 -13.34250
     CHANNELS 6 Xposition Yposition Zposition Zrotation Xrotation Yrotation
     JOINT Spine
     {
          OFFSET 0.00000 11.89050 0.00000
          CHANNELS 3 Zrotation Xrotation Yrotation
          JOINT Spine1
          {
               OFFSET -0.00000 25.65740 0.12766
               CHANNELS 3 Zrotation Xrotation Yrotation
               JOINT HEad
               {
                    OFFSET 0.00000 8.73416 0.01134
                    CHANNELS 3 Zrotation Xrotation Yrotation
                    End Site
                    {
                         OFFSET -0.29000 12.77420 2.51395
                    }
               }
               JOINT LeftShoulder1
               {
                    OFFSET 8.99000 -0.36225 -0.22000
                    CHANNELS 3 Zrotation Xrotation Yrotation
                    JOINT LeftArm
                    {
                         OFFSET 10.28270 -0.00338 0.32212
                         CHANNELS 3 Zrotation Xrotation Yrotation
                         JOINT LeftForeArm
                         {
                              OFFSET 32.76690 0.09914 -1.42434
                              CHANNELS 3 Zrotation Xrotation Yrotation
                              JOINT LeftHand
                              {
                                   OFFSET 27.56430 0.08536 1.02216
                                   CHANNELS 3 Zrotation Xrotation Yrotation
                                   End Site
                                   {
                                        OFFSET 16.74430 -0.60000 1.50291
                                   }
                              }
                         }
                    }
               }
               JOINT RightShoulder
               {
                    OFFSET -8.99000 -0.36225 -0.22000
                    CHANNELS 3 Zrotation Xrotation Yrotation
                    JOINT RightArm
                    {
                         OFFSET -10.28270 -0.00338 0.32212
                         CHANNELS 3 Zrotation Xrotation Yrotation
                         JOINT RightForeArm
                         {
                              OFFSET -32.89710 0.09914 -1.42434
                              CHANNELS 3 Zrotation Xrotation Yrotation
                              JOINT RightHand
                              {
                                   OFFSET -27.49210 0.08536 1.02216
                                   CHANNELS 3 Zrotation Xrotation Yrotation
                                   End Site
                                   {
                                        OFFSET -16.63120 -0.60000 1.50291
                                   }
                              }
                         }
                    }
               }
          }
     }
     JOINT LeftUpLeg
     {
          OFFSET 8.94580 -8.66707 0.10165
          CHANNELS 3 Zrotation Xrotation Yrotation
          JOINT LeftLeg
          {
               OFFSET 0.00000 -44.42270 1.37270
               CHANNELS 3 Zrotation Xrotation Yrotation
               JOINT LeftFoot
               {
                    OFFSET -0.25355 -42.09240 -1.46059
                    CHANNELS 3 Zrotation Xrotation Yrotation
                    JOINT LeftToes
                    {
                         OFFSET -0.04000 -4.41509 8.49910
                         CHANNELS 3 Zrotation Xrotation Yrotation
                         End Site
                         {
                              OFFSET 0.08000 -0.04745 9.77979
                         }
                    }
               }
          }
     }
     JOINT RightUpLeg
     {
          OFFSET -8.94580 -8.66707 0.10165
          CHANNELS 3 Zrotation Xrotation Yrotation
          JOINT RightLeg
          {
               OFFSET 0.00000 -44.42270 1.37270
               CHANNELS 3 Zrotation Xrotation Yrotation
               JOINT RightFoot
               {
                    OFFSET 0.25355 -42.09240 -1.46059
                    CHANNELS 3 Zrotation Xrotation Yrotation
                    JOINT RightToes
                    {
                         OFFSET 0.04000 -4.41509 8.49910
                         CHANNELS 3 Zrotation Xrotation Yrotation
                         End Site
                         {
                              OFFSET -0.08000 -0.13745 9.77979
                         }
                    }
               }
          }
     }
}
MOTION
Frames: 19
Frame Time: 0.01667
-969.99634 92.06780 759.00513 -33.67457 -24.47530 -92.72241 -32.21826 39.90106 15.86837 0.00175 -0.00117 -0.00754 -6.92757 11.89742 12.63327 -0.58723 4.65192 0.19114 -113.91890 -72.31300 -92.83630 -31.22043 51.92097 -79.50908 20.13496 2.61881 -10.87029 12.07138 5.96840 2.08071 72.29147 16.70190 64.95860 -1.16319 26.23487 104.20255 14.97188 15.81707 4.24574 3.83918 -28.70465 51.35889 -285.94952 66.76317 315.24194 -5.00336 0.00684 -0.01351 -5.72636 10.29631 -4.13783 -40.09616 11.32462 19.39469 43.80437 16.54189 -44.55087 -26.38360 0.00393 -0.00794 -0.00851 -37.63656 25.88631 
-969.62817 92.34691 758.86096 -31.22165 -23.18909 -90.37646 -31.44637 39.45826 15.94777 0.00101 -0.00156 -0.00805 -6.92579 12.04331 11.43483 -0.26908 4.95385 -1.37335 -129.90814 -68.60070 -107.64878 -33.67113 57.48853 -77.33557 21.59923 1.08045 -11.10570 12.29353 5.82084 -0.22863 74.38956 13.97482 65.67342 -0.08419 26.68624 104.88773 13.03582 17.07831 4.46369 -0.99359 -27.60282 51.39128 -292.65887 59.71969 325.73007 -4.44929 0.01830 0.02044 -1.73995 7.54821 -14.17951 -38.03603 10.98105 17.15159 42.92679 15.20125 -44.04929 -25.32828 0.00339 -0.00958 0.21908 -42.12561 34.72655 
-969.34045 92.48920 758.79535 -28.36214 -21.40669 -87.80385 -29.87241 38.59900 15.38875 0.00139 -0.00203 -0.00840 -6.92586 12.20627 10.29729 0.41344 5.09158 -2.95852 -139.86195 -64.30827 -116.24234 -37.05405 62.28749 -74.10707 22.50918 1.12527 -10.90928 12.86710 5.50301 -2.63002 76.87166 10.61362 66.53174 1.97965 28.10797 105.06964 12.24510 17.19172 5.03323 -5.26650 -26.44666 50.83992 -296.65192 53.01669 333.90756 -5.71706 0.05692 0.03195 2.56051 1.68634 -25.71758 -35.49675 10.27809 14.57205 42.00159 13.87161 -43.48995 -24.19168 0.00193 -0.01036 0.42118 -44.46737 40.58170 
-969.13464 92.58562 758.80603 -24.27931 -18.23508 -84.57801 -26.06922 36.52197 13.09063 0.01238 -0.00362 -0.02534 -6.96099 12.25304 9.38455 1.73471 4.66166 -4.56678 -144.90169 -61.42704 -119.70009 -39.59634 65.11546 -71.55036 22.11496 4.02729 -9.97545 14.81880 4.56711 -4.70151 80.13398 5.03915 67.93201 6.69700 32.70353 103.44867 13.70166 15.23905 6.02495 -7.83704 -25.94488 48.44471 -300.51526 47.24601 341.10278 -7.72754 0.05699 0.01297 2.41081 -9.04304 -38.08805 -31.62963 8.46612 11.06578 41.05012 12.63886 -42.80690 -22.96483 -0.00113 -0.01261 -1.72951 -42.58743 38.15946 
-969.00354 92.69180 758.88043 -19.50377 -13.78141 -81.17789 -20.74563 33.23911 9.74618 0.01470 -0.00417 -0.02429 -7.04032 12.21378 8.63889 2.76833 4.37181 -5.69844 -147.09337 -59.29984 -120.77576 -40.87527 66.74689 -70.28767 22.29168 4.13698 -10.01305 16.46349 3.86794 -6.27696 82.40785 1.55192 69.13190 9.88768 35.68187 102.36357 13.39484 15.03754 5.74906 -8.52286 -26.03741 44.60050 -304.73792 42.37316 347.61264 -9.57978 0.04404 0.01652 1.04204 -18.87105 -47.60477 -26.80597 5.47871 7.08405 40.10845 11.50510 -42.11061 -21.69296 -0.00353 -0.01173 -2.98819 -42.79041 39.40209 
-968.94434 92.78301 758.97827 -15.69902 -9.82149 -78.63424 -16.37629 30.15376 7.01076 0.01612 -0.00424 -0.02231 -7.18951 12.10972 8.05499 3.46058 4.22881 -6.41319 -147.62056 -57.85057 -120.51550 -40.87376 67.66943 -70.41517 21.87646 5.89470 -9.51568 17.79105 3.39109 -7.45154 83.85268 -0.58728 70.01681 11.98922 37.47926 101.85274 14.26769 13.77927 6.08371 -8.27588 -25.33551 40.49105 -309.52167 38.29173 353.62204 -11.20323 0.03145 0.02010 1.90357 -14.34583 -46.39568 -22.77875 2.60948 4.05313 39.16533 10.47980 -41.44726 -20.37110 -0.00503 -0.01100 -4.89070 -42.01973 38.54272 
-968.94727 92.87675 759.05615 -12.68604 -6.43596 -76.74765 -12.76798 27.36268 4.74889 0.01628 -0.00379 -0.02022 -7.39991 11.95349 7.61109 3.84297 4.22723 -6.78218 -147.13362 -56.94478 -119.46977 -39.83579 68.11793 -71.72303 21.91968 6.01111 -9.51778 18.80130 3.12630 -8.29190 84.65537 -1.88851 70.60185 13.33735 38.40856 101.80138 14.20927 13.54248 5.66180 -7.02477 -24.08187 36.28890 -317.52966 34.05036 360.68805 -10.18271 0.02885 -0.02978 -5.86365 -28.21549 -60.04196 -19.45308 -0.00031 1.83447 38.20984 9.59977 -40.83782 -18.95702 -0.00621 -0.01034 -6.64978 -41.79443 38.50331 
-969.00043 92.92039 759.09363 -10.31867 -3.63573 -75.36015 -9.56520 24.52958 2.63135 0.01330 0.00140 -0.01649 -6.64467 11.18208 6.81143 3.77664 4.74438 -6.79583 -146.01083 -56.44159 -117.98344 -38.07564 68.22483 -73.83183 21.66909 7.05443 -9.16747 19.32600 3.46385 -8.83082 85.02649 -2.67545 70.94755 14.14622 38.74151 102.08532 14.91525 12.77183 5.69107 -4.81421 -22.43869 32.02119 -327.29462 29.40668 367.73672 -7.25013 0.05145 -0.08762 -0.78634 -17.85147 -52.63296 -16.73690 -2.27454 0.28222 37.24791 8.91299 -40.30233 -17.42376 -0.00739 -0.00945 -8.56511 -41.42072 37.91864 
-969.10474 92.90777 759.08563 -8.48340 -1.38589 -74.35587 -6.73242 21.73326 0.66758 0.00924 0.00693 -0.01257 -6.24583 10.79086 6.36176 3.33259 5.66852 -6.53217 -144.45747 -56.21261 -116.24781 -35.92745 68.03235 -76.34904 21.71968 7.09869 -9.11094 19.40886 4.29015 -9.10374 85.14294 -3.14003 71.13267 14.57338 38.66907 102.54812 15.09585 12.59056 5.25628 -1.80299 -20.59887 27.60934 -335.83972 25.47529 374.02582 -5.21588 0.04070 -0.05317 -2.48747 -19.76688 -55.62680 -14.54111 -4.18212 -0.73374 36.30497 8.44717 -39.85518 -15.77223 -0.00840 -0.00783 -10.43751 -41.28945 37.49095 
-969.26917 92.83901 759.03601 -7.09922 0.37092 -73.65189 -4.42091 19.43212 -0.94403 0.00660 0.00793 -0.01045 -5.90102 10.33559 6.02068 2.77467 6.49910 -6.14724 -142.57648 -56.13984 -114.35836 -33.68748 67.56998 -78.90900 21.59211 7.64555 -8.86475 19.29972 5.08703 -9.16326 85.11890 -3.37217 71.20425 14.71163 38.35946 103.12585 15.72283 12.12992 5.13757 1.84796 -18.71882 22.95167 -343.77307 22.01052 380.17218 -3.62082 0.03666 -0.03535 -1.02418 -16.16902 -54.08772 -12.78173 -5.71561 -1.31997 35.41670 8.20688 -39.50523 -14.02872 -0.00902 -0.00544 -12.32238 -41.25360 36.87744 
-969.49780 92.71862 758.95148 -6.10758 1.69929 -73.18551 -2.53314 17.60756 -2.26898 0.00374 0.00851 -0.00861 -5.56638 9.82412 5.76545 2.13452 7.22578 -5.66670 -140.39969 -56.13146 -112.35929 -31.56689 66.84010 -81.25738 21.63247 7.58979 -8.81113 19.03757 5.83876 -9.03243 85.03329 -3.45576 71.19979 14.63380 37.92232 103.76096 16.01092 11.99585 4.74980 5.97438 -16.93171 17.94300 -351.40994 18.79480 386.49512 -2.19564 0.03408 -0.02617 -1.11065 -15.75818 -54.86559 -11.38346 -6.88430 -1.56419 34.62291 8.18053 -39.25734 -12.23304 -0.00912 -0.00245 -14.19794 -41.42604 36.20889 
-969.78430 92.54850 758.83923 -5.46214 2.66397 -72.90456 -0.99916 16.23013 -3.35727 0.00093 0.00892 -0.00690 -5.20694 9.27200 5.57528 1.44138 7.84669 -5.10952 -137.90562 -56.10740 -110.24001 -29.65780 65.84435 -83.25750 21.54234 7.83139 -8.67202 18.67144 6.53602 -8.74145 84.92464 -3.44811 71.13995 14.39246 37.44479 104.43330 16.52647 11.70142 4.59520 10.43567 -15.35597 12.49541 -358.85754 15.59526 393.12643 -0.72004 0.03288 -0.02069 -0.38280 -14.21076 -54.63543 -10.28384 -7.71334 -1.54208 33.96210 8.34718 -39.11515 -10.42941 -0.00870 0.00073 -16.10002 -41.77744 35.37832 
-970.10852 92.34129 758.68835 -5.11884 3.33096 -72.75776 0.23612 15.25927 -4.25454 -0.00157 0.00916 -0.00523 -4.79439 8.69530 5.42923 0.72785 8.36052 -4.48483 -135.04904 -55.99737 -107.95982 -27.96539 64.57048 -84.87857 21.53069 7.74586 -8.67035 18.25944 7.16809 -8.31937 84.80099 -3.39721 71.03981 14.04328 36.97327 105.11266 16.80574 11.58381 4.31406 14.93805 -14.06559 6.48961 -366.16434 11.99936 400.10822 0.74977 0.00104 -0.01595 0.31619 -13.62806 -54.89286 -9.41090 -8.25395 -1.32306 33.46218 8.68177 -39.08982 -8.66975 -0.00783 0.00376 -18.03700 -42.32261 34.42521 
-970.43799 92.10807 758.48535 -5.03185 3.75781 -72.69714 1.20276 14.64206 -4.99212 -0.00379 0.00883 -0.00349 -4.29925 8.11480 5.30129 -0.17098 8.79130 -3.62191 -124.06387 -54.83689 -100.21198 -23.35220 59.05924 -87.79776 21.44340 7.87343 -8.61806 17.85699 7.72782 -7.78938 84.66888 -3.35069 70.91801 13.63923 36.53152 105.75888 17.19123 11.38499 4.21728 19.32997 -13.13579 -0.11491 -373.23608 7.99799 407.33759 2.14106 -0.00128 -0.00462 1.56049 -13.29992 -54.84498 -8.71805 -8.57206 -0.97152 33.14488 9.15648 -39.19404 -6.99292 -0.00660 0.00618 -20.00259 -43.02178 33.36958 
-970.74091 91.85563 758.24805 -5.15353 3.98926 -72.68559 1.92673 14.33071 -5.60052 -0.00529 0.00919 -0.00203 -3.71305 7.53529 5.17655 -0.95551 9.10446 -2.77436 -116.41753 -53.58849 -94.85130 -20.78286 54.93541 -89.37032 21.38668 7.83012 -8.64928 17.53536 8.19979 -7.19429 84.49486 -3.32775 70.77141 13.21334 36.13004 106.36040 17.40261 11.30537 4.07115 23.00519 -12.46276 -6.32761 -379.18359 3.80616 413.59479 3.24202 -0.00038 0.00332 2.86880 -13.70133 -54.90295 -8.20126 -8.73035 -0.54261 33.02297 9.74549 -39.43278 -5.40683 -0.00521 0.00770 -21.97301 -43.84140 32.27652 
-971.00305 91.58703 758.01428 -5.43832 4.05682 -72.70023 2.42755 14.27932 -6.09822 -0.00621 0.00950 -0.00077 -3.04076 6.95866 5.04618 -1.59511 9.30529 -2.00455 -110.97050 -52.40762 -91.07944 -19.21561 51.72783 -90.25077 21.21354 7.90097 -8.62656 17.31087 8.58186 -6.54952 84.28957 -3.35499 70.60058 12.78285 35.77329 106.91226 17.64365 11.20284 4.05500 26.04131 -11.94667 -12.10400 -384.07034 -0.30103 418.92554 3.91042 0.00016 0.00482 4.37403 -14.41245 -54.82352 -7.88434 -8.77219 -0.07607 33.09492 10.42877 -39.79858 -3.89027 -0.00391 0.00843 -23.92673 -44.75295 31.19213 
-971.22870 91.30418 757.82031 -5.84581 3.98421 -72.72812 2.72356 14.44470 -6.49501 -0.00674 0.00964 0.00025 -2.29774 6.38412 4.90701 -2.11495 9.40980 -1.31598 -106.94801 -51.28168 -88.36617 -18.18889 49.12039 -90.67595 21.01712 7.85607 -8.69172 17.17566 8.88126 -5.86731 84.07699 -3.44907 70.41446 12.36253 35.45601 107.40471 17.74829 11.17244 4.01262 28.51573 -11.53313 -17.39943 -388.00903 -4.10606 423.44119 4.09691 0.00023 0.00144 5.90240 -15.42226 -54.76506 -7.79001 -8.72175 0.40401 33.34771 11.19339 -40.27628 -2.41132 -0.00281 0.00878 -25.85278 -45.74939 30.15411 
-971.43225 91.01048 757.68884 -6.34204 3.79161 -72.76139 2.83447 14.78706 -6.79685 -0.00697 0.00965 0.00097 -1.50610 5.81048 4.76077 -2.54035 9.43822 -0.70581 -103.87006 -50.17495 -86.38071 -17.46194 46.91123 -90.77666 20.73896 7.86868 -8.74250 17.10848 9.11116 -5.16495 83.88405 -3.61026 70.22388 11.96540 35.17381 107.83585 17.85855 11.11651 4.04432 30.48497 -11.19152 -22.17870 -391.12991 -7.45691 427.27539 3.82207 0.00059 -0.00358 7.46634 -16.54279 -54.72389 -7.92087 -8.59270 0.88622 33.76427 12.03010 -40.85069 -0.94599 -0.00184 0.00909 -27.74823 -46.83118 29.18932 
-971.62982 90.71295 757.62585 -6.89948 3.49796 -72.79443 2.78138 15.27046 -7.00858 -0.00697 0.00956 0.00139 -0.69083 5.23726 4.61224 -2.88912 9.41156 -0.16886 -101.43947 -49.06546 -84.90754 -16.90137 44.97702 -90.65847 20.45257 7.81877 -8.85314 17.08440 9.28579 -4.46457 83.73083 -3.82371 70.04015 11.60666 34.91742 108.20440 17.89803 11.08136 4.04907 31.98760 -10.90074 -26.41876 -393.55893 -10.26066 430.55225 3.14506 0.00172 -0.00788 8.99622 -17.70435 -54.77380 -8.25665 -8.39593 1.36727 34.32854 12.92815 -41.51067 0.51432 -0.00091 0.00951 -29.60834 -47.99841 28.32605 
